<?xml version="1.0" encoding="UTF-8"?>
<svg id="Layer_1" data-name="Layer 1" xmlns="http://www.w3.org/2000/svg" viewBox="0 0 303.9 65">
  <defs>
    <style>
      .cls-1 {
        fill: #fff;
      }

      .cls-2 {
        fill: #be1e2d;
      }
    </style>
  </defs>
  <rect class="cls-2" x="0" y="0" width="136.06" height="65"/>
  <g>
    <path class="cls-1" d="M12.07,14.52h10.53l8.58,13.92,8.58-13.92h10.53v35.96h-9.91v-20.65l-9.19,14.07h-.2l-9.14-14.02v20.6h-9.76V14.52Z"/>
    <path class="cls-1" d="M69.11,14.27h9.6l15.31,36.21h-10.68l-2.57-6.47h-13.92l-2.57,6.47h-10.43l15.26-36.21ZM77.84,36.25l-4.01-10.17-4.06,10.17h8.07Z"/>
    <path class="cls-1" d="M94.04,32.6v-.1c0-10.48,8.01-18.7,18.9-18.7,7.29,0,12.12,3.08,15.26,7.45l-7.5,5.8c-2.06-2.52-4.37-4.21-7.86-4.21-5.03,0-8.58,4.32-8.58,9.55v.1c0,5.39,3.54,9.6,8.58,9.6,3.75,0,5.91-1.75,8.12-4.36l7.5,5.34c-3.44,4.67-7.96,8.12-15.87,8.12-10.27,0-18.54-7.86-18.54-18.59Z"/>
  </g>
  <g>
    <path class="cls-1" d="M141.73,14.52h10.53l6.27,20.8,6.93-20.91h8.58l6.93,20.91,6.27-20.8h10.33l-12.02,36.21h-8.68l-7.19-20.7-7.24,20.7h-8.68l-12.02-36.21Z"/>
    <path class="cls-1" d="M209.36,14.27h9.6l15.31,36.21h-10.68l-2.57-6.47h-13.92l-2.57,6.47h-10.43l15.26-36.21ZM218.09,36.25l-4.01-10.17-4.06,10.17h8.07Z"/>
    <path class="cls-1" d="M237.78,14.52h17c5.55,0,9.29,1.44,11.71,3.85,2.1,2.11,3.18,4.93,3.18,8.37v.1c0,5.55-2.88,9.19-7.39,11.1l8.58,12.53h-11.46l-7.24-10.89h-4.42v10.89h-9.96V14.52ZM254.37,31.78c3.34,0,5.34-1.64,5.34-4.26v-.1c0-2.88-2.11-4.31-5.4-4.31h-6.57v8.68h6.63Z"/>
    <path class="cls-1" d="M274.73,14.52h28.92v8.43h-19.06v5.5h17.26v7.86h-17.26v5.7h19.31v8.48h-29.18V14.52Z"/>
  </g>
</svg>