<?xml version="1.0" encoding="UTF-8"?>
<svg id="Layer_1" data-name="Layer 1" xmlns="http://www.w3.org/2000/svg" viewBox="0 0 343.47 65">
  <defs>
    <style>
      .cls-1 {
        fill: #8dc63f;
      }

      .cls-2 {
        fill: #fff;
      }
    </style>
  </defs>
  <rect class="cls-1" x="-.02" width="136.06" height="65"/>
  <g>
    <path class="cls-2" d="M12.04,14.52h10.53l8.58,13.92,8.58-13.92h10.53v35.96h-9.91v-20.65l-9.19,14.07h-.2l-9.14-14.02v20.6h-9.76V14.52Z"/>
    <path class="cls-2" d="M69.08,14.27h9.6l15.31,36.21h-10.68l-2.57-6.47h-13.92l-2.57,6.47h-10.43l15.26-36.21ZM77.81,36.25l-4.01-10.17-4.06,10.17h8.07Z"/>
    <path class="cls-2" d="M94.01,32.6v-.1c0-10.48,8.01-18.7,18.9-18.7,7.29,0,12.12,3.08,15.26,7.45l-7.5,5.8c-2.06-2.52-4.37-4.21-7.86-4.21-5.03,0-8.58,4.32-8.58,9.55v.1c0,5.39,3.54,9.6,8.58,9.6,3.75,0,5.91-1.75,8.12-4.36l7.5,5.34c-3.44,4.67-7.96,8.12-15.87,8.12-10.27,0-18.54-7.86-18.54-18.59Z"/>
  </g>
  <g>
    <path class="cls-2" d="M141.71,45.14l5.55-6.63c3.65,2.88,7.55,4.32,11.66,4.32,2.72,0,4.16-.87,4.16-2.46v-.1c0-1.54-1.18-2.26-6.11-3.49-7.6-1.75-13.56-3.85-13.56-11.25v-.1c0-6.73,5.29-11.51,13.92-11.51,6.16,0,10.89,1.64,14.79,4.78l-4.98,7.03c-3.29-2.41-6.83-3.54-10.07-3.54-2.42,0-3.6.92-3.6,2.31v.1c0,1.59,1.23,2.41,6.27,3.49,8.22,1.8,13.35,4.47,13.35,11.2v.1c0,7.34-5.8,11.71-14.53,11.71-6.42,0-12.33-2-16.85-5.96Z"/>
    <path class="cls-2" d="M185.69,23.25h-10.74v-8.73h31.48v8.73h-10.79v27.22h-9.96v-27.22Z"/>
    <path class="cls-2" d="M210.41,34.71V14.52h10.07v19.98c0,5.19,2.57,7.65,6.63,7.65s6.67-2.31,6.67-7.39V14.52h10.07v19.93c0,11.56-6.62,16.7-16.85,16.7s-16.59-5.14-16.59-16.44Z"/>
    <path class="cls-2" d="M249.78,14.52h13.92c12.79,0,20.23,7.34,20.23,17.77v.1c0,10.43-7.55,18.08-20.44,18.08h-13.72V14.52ZM259.74,23.31v18.34h4.06c6.01,0,9.97-3.29,9.97-9.09v-.1c0-5.8-3.96-9.14-9.97-9.14h-4.06Z"/>
    <path class="cls-2" d="M289.4,14.52h9.96v35.96h-9.96V14.52Z"/>
    <path class="cls-2" d="M304.77,32.6v-.1c0-10.33,8.32-18.7,19.41-18.7s19.31,8.32,19.31,18.59v.1c0,10.32-8.32,18.69-19.41,18.69s-19.31-8.32-19.31-18.59ZM333.28,32.6v-.1c0-5.24-3.7-9.71-9.19-9.71s-9.14,4.42-9.14,9.61v.1c0,5.14,3.75,9.71,9.24,9.71s9.09-4.42,9.09-9.61Z"/>
  </g>
</svg>