<svg width="301" height="57" viewBox="0 0 301 57" fill="none" xmlns="http://www.w3.org/2000/svg">
<path fill-rule="evenodd" clip-rule="evenodd" d="M26.6756 57.0001H0V2.76494H24.0701L52.3586 49.044L79.9027 2.76494H103.973L104.128 57.0001H77.3408L77.2972 50.0366L73.1626 57.0001H30.1491L26.6756 51.4014V57.0001ZM199.408 57.0001H123.206L146.914 2.76494H175.699L199.408 57.0001ZM214.801 57.0001C214.036 53.5652 213.653 49.962 213.653 46.1903C213.653 37.4225 215.721 29.606 219.856 22.7406C224.075 15.7926 229.865 10.4161 237.227 6.61119C244.588 2.72359 252.86 0.779785 262.041 0.779785C270.478 0.779785 278.005 2.26866 284.622 5.2464C291.24 8.22413 296.699 12.5253 301 18.1499L282.513 34.6516C277.137 27.8689 270.809 24.4776 263.53 24.4776C257.409 24.4776 252.488 26.4628 248.765 30.4331C245.043 34.3207 243.182 39.5731 243.182 46.1903C243.182 50.3054 243.902 53.9087 245.341 57.0001H214.801ZM169.496 53.3865L161.059 31.5498L152.622 53.3865H169.496Z" fill="white" fill-opacity="0.1"/>
</svg>
